<mxfile host="65bd71144e">
    <diagram name="Full user flow" id="2ByjSoW8Mg05qqFCvZm8">
        <mxGraphModel dx="1973" dy="682" grid="1" gridSize="10" guides="1" tooltips="1" connect="1" arrows="1" fold="1" page="1" pageScale="1" pageWidth="827" pageHeight="1169" math="0" shadow="0">
            <root>
                <mxCell id="0"/>
                <mxCell id="1" parent="0"/>
                <mxCell id="LbGbRFIoBxtA0kbKudNe-12" value="" style="edgeStyle=orthogonalEdgeStyle;rounded=0;orthogonalLoop=1;jettySize=auto;html=1;" parent="1" source="LbGbRFIoBxtA0kbKudNe-1" target="LbGbRFIoBxtA0kbKudNe-11" edge="1">
                    <mxGeometry relative="1" as="geometry"/>
                </mxCell>
                <mxCell id="v6gJr6WEd6bAaIdDgsFx-4" value="" style="edgeStyle=orthogonalEdgeStyle;rounded=0;orthogonalLoop=1;jettySize=auto;html=1;" parent="1" source="LbGbRFIoBxtA0kbKudNe-1" target="v6gJr6WEd6bAaIdDgsFx-3" edge="1">
                    <mxGeometry relative="1" as="geometry"/>
                </mxCell>
                <mxCell id="LbGbRFIoBxtA0kbKudNe-1" value="Landing page:&lt;br&gt;Tony Hawk Skateboarding Bootcamp" style="rounded=1;whiteSpace=wrap;html=1;fillColor=#41F82D;strokeColor=#b85450;" parent="1" vertex="1">
                    <mxGeometry x="120" width="120" height="60" as="geometry"/>
                </mxCell>
                <mxCell id="v6gJr6WEd6bAaIdDgsFx-28" value="" style="edgeStyle=orthogonalEdgeStyle;rounded=0;orthogonalLoop=1;jettySize=auto;html=1;" parent="1" source="LbGbRFIoBxtA0kbKudNe-11" target="v6gJr6WEd6bAaIdDgsFx-27" edge="1">
                    <mxGeometry relative="1" as="geometry"/>
                </mxCell>
                <mxCell id="v6gJr6WEd6bAaIdDgsFx-29" style="edgeStyle=orthogonalEdgeStyle;rounded=0;orthogonalLoop=1;jettySize=auto;html=1;entryX=0.5;entryY=0;entryDx=0;entryDy=0;" parent="1" source="LbGbRFIoBxtA0kbKudNe-11" target="v6gJr6WEd6bAaIdDgsFx-18" edge="1">
                    <mxGeometry relative="1" as="geometry"/>
                </mxCell>
                <mxCell id="v6gJr6WEd6bAaIdDgsFx-35" value="" style="edgeStyle=orthogonalEdgeStyle;rounded=0;orthogonalLoop=1;jettySize=auto;html=1;" parent="1" source="LbGbRFIoBxtA0kbKudNe-11" target="v6gJr6WEd6bAaIdDgsFx-34" edge="1">
                    <mxGeometry relative="1" as="geometry"/>
                </mxCell>
                <mxCell id="v6gJr6WEd6bAaIdDgsFx-36" style="edgeStyle=orthogonalEdgeStyle;rounded=0;orthogonalLoop=1;jettySize=auto;html=1;entryX=0.5;entryY=1;entryDx=0;entryDy=0;" parent="1" source="LbGbRFIoBxtA0kbKudNe-11" target="v6gJr6WEd6bAaIdDgsFx-23" edge="1">
                    <mxGeometry relative="1" as="geometry"/>
                </mxCell>
                <mxCell id="LbGbRFIoBxtA0kbKudNe-11" value="Call to action" style="whiteSpace=wrap;html=1;rounded=1;fillColor=#f8cecc;strokeColor=#b85450;" parent="1" vertex="1">
                    <mxGeometry x="120" y="100" width="120" height="60" as="geometry"/>
                </mxCell>
                <mxCell id="v6gJr6WEd6bAaIdDgsFx-12" value="" style="edgeStyle=orthogonalEdgeStyle;rounded=0;orthogonalLoop=1;jettySize=auto;html=1;" parent="1" source="LbGbRFIoBxtA0kbKudNe-13" target="v6gJr6WEd6bAaIdDgsFx-11" edge="1">
                    <mxGeometry relative="1" as="geometry"/>
                </mxCell>
                <mxCell id="LbGbRFIoBxtA0kbKudNe-13" value="Testimonials Page option in menu/navbar" style="whiteSpace=wrap;html=1;rounded=1;fillColor=#f8cecc;strokeColor=#b85450;" parent="1" vertex="1">
                    <mxGeometry x="-200" y="230" width="120" height="60" as="geometry"/>
                </mxCell>
                <mxCell id="LbGbRFIoBxtA0kbKudNe-18" value="" style="edgeStyle=orthogonalEdgeStyle;rounded=0;orthogonalLoop=1;jettySize=auto;html=1;" parent="1" source="LbGbRFIoBxtA0kbKudNe-15" target="LbGbRFIoBxtA0kbKudNe-17" edge="1">
                    <mxGeometry relative="1" as="geometry"/>
                </mxCell>
                <mxCell id="v6gJr6WEd6bAaIdDgsFx-21" value="" style="edgeStyle=orthogonalEdgeStyle;rounded=0;orthogonalLoop=1;jettySize=auto;html=1;" parent="1" source="LbGbRFIoBxtA0kbKudNe-15" target="LbGbRFIoBxtA0kbKudNe-17" edge="1">
                    <mxGeometry relative="1" as="geometry"/>
                </mxCell>
                <mxCell id="LbGbRFIoBxtA0kbKudNe-15" value="Application page - registration of interest" style="whiteSpace=wrap;html=1;rounded=1;fillColor=#f8cecc;strokeColor=#b85450;" parent="1" vertex="1">
                    <mxGeometry x="120" y="290" width="120" height="60" as="geometry"/>
                </mxCell>
                <mxCell id="LbGbRFIoBxtA0kbKudNe-26" value="" style="edgeStyle=orthogonalEdgeStyle;rounded=0;orthogonalLoop=1;jettySize=auto;html=1;" parent="1" source="LbGbRFIoBxtA0kbKudNe-17" target="LbGbRFIoBxtA0kbKudNe-25" edge="1">
                    <mxGeometry relative="1" as="geometry"/>
                </mxCell>
                <mxCell id="LbGbRFIoBxtA0kbKudNe-17" value="User inputs email and afterwards receives an application email" style="whiteSpace=wrap;html=1;rounded=1;fillColor=#f8cecc;strokeColor=#b85450;" parent="1" vertex="1">
                    <mxGeometry x="120" y="370" width="120" height="60" as="geometry"/>
                </mxCell>
                <mxCell id="v6gJr6WEd6bAaIdDgsFx-10" value="" style="edgeStyle=orthogonalEdgeStyle;rounded=0;orthogonalLoop=1;jettySize=auto;html=1;" parent="1" source="LbGbRFIoBxtA0kbKudNe-19" target="v6gJr6WEd6bAaIdDgsFx-9" edge="1">
                    <mxGeometry relative="1" as="geometry"/>
                </mxCell>
                <mxCell id="LbGbRFIoBxtA0kbKudNe-19" value="Course overview option in menu/navbar" style="whiteSpace=wrap;html=1;rounded=1;fillColor=#f8cecc;strokeColor=#b85450;" parent="1" vertex="1">
                    <mxGeometry x="-200" y="30" width="120" height="60" as="geometry"/>
                </mxCell>
                <mxCell id="LbGbRFIoBxtA0kbKudNe-21" value="Individual videos for skateboarding tricks" style="whiteSpace=wrap;html=1;rounded=1;" parent="1" vertex="1">
                    <mxGeometry x="-510" y="30" width="120" height="60" as="geometry"/>
                </mxCell>
                <mxCell id="LbGbRFIoBxtA0kbKudNe-23" value="Parents and teachers' area - info about appeal to kids" style="whiteSpace=wrap;html=1;rounded=1;fillColor=#f8cecc;strokeColor=#b85450;" parent="1" vertex="1">
                    <mxGeometry x="-510" y="230" width="120" height="60" as="geometry"/>
                </mxCell>
                <mxCell id="LbGbRFIoBxtA0kbKudNe-28" value="" style="edgeStyle=orthogonalEdgeStyle;rounded=0;orthogonalLoop=1;jettySize=auto;html=1;" parent="1" source="LbGbRFIoBxtA0kbKudNe-25" target="LbGbRFIoBxtA0kbKudNe-27" edge="1">
                    <mxGeometry relative="1" as="geometry"/>
                </mxCell>
                <mxCell id="LbGbRFIoBxtA0kbKudNe-45" value="" style="edgeStyle=orthogonalEdgeStyle;rounded=0;orthogonalLoop=1;jettySize=auto;html=1;" parent="1" source="LbGbRFIoBxtA0kbKudNe-25" target="LbGbRFIoBxtA0kbKudNe-44" edge="1">
                    <mxGeometry relative="1" as="geometry"/>
                </mxCell>
                <mxCell id="LbGbRFIoBxtA0kbKudNe-25" value="Content of application form" style="whiteSpace=wrap;html=1;rounded=1;" parent="1" vertex="1">
                    <mxGeometry x="120" y="450" width="120" height="60" as="geometry"/>
                </mxCell>
                <mxCell id="LbGbRFIoBxtA0kbKudNe-30" value="" style="edgeStyle=orthogonalEdgeStyle;rounded=0;orthogonalLoop=1;jettySize=auto;html=1;" parent="1" source="LbGbRFIoBxtA0kbKudNe-27" target="LbGbRFIoBxtA0kbKudNe-29" edge="1">
                    <mxGeometry relative="1" as="geometry"/>
                </mxCell>
                <mxCell id="LbGbRFIoBxtA0kbKudNe-33" style="edgeStyle=orthogonalEdgeStyle;rounded=0;orthogonalLoop=1;jettySize=auto;html=1;" parent="1" source="LbGbRFIoBxtA0kbKudNe-27" target="LbGbRFIoBxtA0kbKudNe-31" edge="1">
                    <mxGeometry relative="1" as="geometry"/>
                </mxCell>
                <mxCell id="LbGbRFIoBxtA0kbKudNe-27" value="Medical questionnaire - ensuring that they are physically able to skateboard while being sensitive to differently-abled children." style="whiteSpace=wrap;html=1;rounded=1;" parent="1" vertex="1">
                    <mxGeometry x="-250" y="535" width="160" height="125" as="geometry"/>
                </mxCell>
                <mxCell id="LbGbRFIoBxtA0kbKudNe-29" value="Waiver included to sign." style="whiteSpace=wrap;html=1;rounded=1;" parent="1" vertex="1">
                    <mxGeometry x="-230" y="740" width="120" height="60" as="geometry"/>
                </mxCell>
                <mxCell id="LbGbRFIoBxtA0kbKudNe-82" style="edgeStyle=orthogonalEdgeStyle;rounded=0;orthogonalLoop=1;jettySize=auto;html=1;entryX=0.5;entryY=0;entryDx=0;entryDy=0;" parent="1" source="LbGbRFIoBxtA0kbKudNe-31" target="LbGbRFIoBxtA0kbKudNe-34" edge="1">
                    <mxGeometry relative="1" as="geometry"/>
                </mxCell>
                <mxCell id="LbGbRFIoBxtA0kbKudNe-31" value="Both of these completed and signed? (MANDATORY)" style="rhombus;whiteSpace=wrap;html=1;rounded=1;" parent="1" vertex="1">
                    <mxGeometry x="140" y="520" width="180" height="155" as="geometry"/>
                </mxCell>
                <mxCell id="LbGbRFIoBxtA0kbKudNe-43" value="" style="edgeStyle=orthogonalEdgeStyle;rounded=0;orthogonalLoop=1;jettySize=auto;html=1;" parent="1" source="LbGbRFIoBxtA0kbKudNe-34" target="LbGbRFIoBxtA0kbKudNe-42" edge="1">
                    <mxGeometry relative="1" as="geometry"/>
                </mxCell>
                <mxCell id="LbGbRFIoBxtA0kbKudNe-72" value="" style="edgeStyle=orthogonalEdgeStyle;rounded=0;orthogonalLoop=1;jettySize=auto;html=1;" parent="1" source="LbGbRFIoBxtA0kbKudNe-42" target="LbGbRFIoBxtA0kbKudNe-71" edge="1">
                    <mxGeometry relative="1" as="geometry"/>
                </mxCell>
                <mxCell id="LbGbRFIoBxtA0kbKudNe-86" value="" style="edgeStyle=orthogonalEdgeStyle;rounded=0;orthogonalLoop=1;jettySize=auto;html=1;" parent="1" source="LbGbRFIoBxtA0kbKudNe-42" target="LbGbRFIoBxtA0kbKudNe-85" edge="1">
                    <mxGeometry relative="1" as="geometry"/>
                </mxCell>
                <mxCell id="LbGbRFIoBxtA0kbKudNe-42" value="Ready to submit" style="ellipse;whiteSpace=wrap;html=1;rounded=1;" parent="1" vertex="1">
                    <mxGeometry x="175" y="930" width="110" height="120" as="geometry"/>
                </mxCell>
                <mxCell id="LbGbRFIoBxtA0kbKudNe-49" value="" style="edgeStyle=orthogonalEdgeStyle;rounded=0;orthogonalLoop=1;jettySize=auto;html=1;" parent="1" source="LbGbRFIoBxtA0kbKudNe-44" target="LbGbRFIoBxtA0kbKudNe-48" edge="1">
                    <mxGeometry relative="1" as="geometry"/>
                </mxCell>
                <mxCell id="LbGbRFIoBxtA0kbKudNe-44" value="Application" style="whiteSpace=wrap;html=1;rounded=1;" parent="1" vertex="1">
                    <mxGeometry x="450" y="450" width="120" height="60" as="geometry"/>
                </mxCell>
                <mxCell id="LbGbRFIoBxtA0kbKudNe-51" value="" style="edgeStyle=orthogonalEdgeStyle;rounded=0;orthogonalLoop=1;jettySize=auto;html=1;" parent="1" source="LbGbRFIoBxtA0kbKudNe-48" target="LbGbRFIoBxtA0kbKudNe-50" edge="1">
                    <mxGeometry relative="1" as="geometry"/>
                </mxCell>
                <mxCell id="LbGbRFIoBxtA0kbKudNe-55" value="" style="edgeStyle=orthogonalEdgeStyle;rounded=0;orthogonalLoop=1;jettySize=auto;html=1;" parent="1" source="LbGbRFIoBxtA0kbKudNe-48" target="LbGbRFIoBxtA0kbKudNe-54" edge="1">
                    <mxGeometry relative="1" as="geometry"/>
                </mxCell>
                <mxCell id="LbGbRFIoBxtA0kbKudNe-48" value="Skateboarding demonstration video or just application?" style="rhombus;whiteSpace=wrap;html=1;rounded=1;" parent="1" vertex="1">
                    <mxGeometry x="650" y="535" width="150" height="145" as="geometry"/>
                </mxCell>
                <mxCell id="LbGbRFIoBxtA0kbKudNe-65" value="" style="edgeStyle=orthogonalEdgeStyle;rounded=0;orthogonalLoop=1;jettySize=auto;html=1;" parent="1" source="LbGbRFIoBxtA0kbKudNe-50" target="LbGbRFIoBxtA0kbKudNe-64" edge="1">
                    <mxGeometry relative="1" as="geometry"/>
                </mxCell>
                <mxCell id="LbGbRFIoBxtA0kbKudNe-50" value="Skateboarding demonstration" style="whiteSpace=wrap;html=1;rounded=1;" parent="1" vertex="1">
                    <mxGeometry x="360" y="713.75" width="120" height="60" as="geometry"/>
                </mxCell>
                <mxCell id="LbGbRFIoBxtA0kbKudNe-57" value="" style="edgeStyle=orthogonalEdgeStyle;rounded=0;orthogonalLoop=1;jettySize=auto;html=1;" parent="1" source="LbGbRFIoBxtA0kbKudNe-54" target="LbGbRFIoBxtA0kbKudNe-56" edge="1">
                    <mxGeometry relative="1" as="geometry"/>
                </mxCell>
                <mxCell id="LbGbRFIoBxtA0kbKudNe-54" value="Only application" style="whiteSpace=wrap;html=1;rounded=1;" parent="1" vertex="1">
                    <mxGeometry x="880" y="577.5" width="120" height="60" as="geometry"/>
                </mxCell>
                <mxCell id="LbGbRFIoBxtA0kbKudNe-59" value="" style="edgeStyle=orthogonalEdgeStyle;rounded=0;orthogonalLoop=1;jettySize=auto;html=1;" parent="1" source="LbGbRFIoBxtA0kbKudNe-56" target="LbGbRFIoBxtA0kbKudNe-58" edge="1">
                    <mxGeometry relative="1" as="geometry"/>
                </mxCell>
                <mxCell id="LbGbRFIoBxtA0kbKudNe-61" value="" style="edgeStyle=orthogonalEdgeStyle;rounded=0;orthogonalLoop=1;jettySize=auto;html=1;" parent="1" source="LbGbRFIoBxtA0kbKudNe-56" target="LbGbRFIoBxtA0kbKudNe-60" edge="1">
                    <mxGeometry relative="1" as="geometry"/>
                </mxCell>
                <mxCell id="LbGbRFIoBxtA0kbKudNe-56" value="Video or written application?" style="rhombus;whiteSpace=wrap;html=1;rounded=1;" parent="1" vertex="1">
                    <mxGeometry x="882.5" y="677.5" width="115" height="132.5" as="geometry"/>
                </mxCell>
                <mxCell id="LbGbRFIoBxtA0kbKudNe-63" value="" style="edgeStyle=orthogonalEdgeStyle;rounded=0;orthogonalLoop=1;jettySize=auto;html=1;" parent="1" source="LbGbRFIoBxtA0kbKudNe-58" target="LbGbRFIoBxtA0kbKudNe-62" edge="1">
                    <mxGeometry relative="1" as="geometry"/>
                </mxCell>
                <mxCell id="LbGbRFIoBxtA0kbKudNe-58" value="Video: Video submission talking about yourself, why you want to do the course etc" style="whiteSpace=wrap;html=1;rounded=1;" parent="1" vertex="1">
                    <mxGeometry x="870" y="850" width="140" height="70" as="geometry"/>
                </mxCell>
                <mxCell id="LbGbRFIoBxtA0kbKudNe-70" style="edgeStyle=orthogonalEdgeStyle;rounded=0;orthogonalLoop=1;jettySize=auto;html=1;entryX=1;entryY=0.5;entryDx=0;entryDy=0;" parent="1" source="LbGbRFIoBxtA0kbKudNe-60" target="LbGbRFIoBxtA0kbKudNe-62" edge="1">
                    <mxGeometry relative="1" as="geometry"/>
                </mxCell>
                <mxCell id="LbGbRFIoBxtA0kbKudNe-60" value="Written: Written essay on the same topic as video" style="whiteSpace=wrap;html=1;rounded=1;" parent="1" vertex="1">
                    <mxGeometry x="1010" y="980" width="120" height="60" as="geometry"/>
                </mxCell>
                <mxCell id="LbGbRFIoBxtA0kbKudNe-68" value="" style="edgeStyle=orthogonalEdgeStyle;rounded=0;orthogonalLoop=1;jettySize=auto;html=1;" parent="1" source="LbGbRFIoBxtA0kbKudNe-62" target="LbGbRFIoBxtA0kbKudNe-67" edge="1">
                    <mxGeometry relative="1" as="geometry"/>
                </mxCell>
                <mxCell id="LbGbRFIoBxtA0kbKudNe-62" value="User entry submitted?" style="rhombus;whiteSpace=wrap;html=1;rounded=1;" parent="1" vertex="1">
                    <mxGeometry x="470" y="950" width="80" height="80" as="geometry"/>
                </mxCell>
                <mxCell id="LbGbRFIoBxtA0kbKudNe-84" style="edgeStyle=orthogonalEdgeStyle;rounded=0;orthogonalLoop=1;jettySize=auto;html=1;entryX=0;entryY=0.5;entryDx=0;entryDy=0;" parent="1" source="LbGbRFIoBxtA0kbKudNe-64" target="LbGbRFIoBxtA0kbKudNe-56" edge="1">
                    <mxGeometry relative="1" as="geometry"/>
                </mxCell>
                <mxCell id="LbGbRFIoBxtA0kbKudNe-64" value="Applicatant uploads a video of their skateboarding expertise. Optional." style="whiteSpace=wrap;html=1;rounded=1;" parent="1" vertex="1">
                    <mxGeometry x="550" y="713.75" width="120" height="60" as="geometry"/>
                </mxCell>
                <mxCell id="LbGbRFIoBxtA0kbKudNe-69" style="edgeStyle=orthogonalEdgeStyle;rounded=0;orthogonalLoop=1;jettySize=auto;html=1;entryX=1;entryY=0.5;entryDx=0;entryDy=0;" parent="1" source="LbGbRFIoBxtA0kbKudNe-67" target="LbGbRFIoBxtA0kbKudNe-42" edge="1">
                    <mxGeometry relative="1" as="geometry"/>
                </mxCell>
                <mxCell id="LbGbRFIoBxtA0kbKudNe-67" value="Yes" style="whiteSpace=wrap;html=1;rounded=1;" parent="1" vertex="1">
                    <mxGeometry x="320" y="960" width="120" height="60" as="geometry"/>
                </mxCell>
                <mxCell id="LbGbRFIoBxtA0kbKudNe-74" value="" style="edgeStyle=orthogonalEdgeStyle;rounded=0;orthogonalLoop=1;jettySize=auto;html=1;" parent="1" source="LbGbRFIoBxtA0kbKudNe-71" target="LbGbRFIoBxtA0kbKudNe-73" edge="1">
                    <mxGeometry relative="1" as="geometry"/>
                </mxCell>
                <mxCell id="LbGbRFIoBxtA0kbKudNe-71" value="User submits." style="whiteSpace=wrap;html=1;rounded=1;" parent="1" vertex="1">
                    <mxGeometry x="170" y="1130" width="120" height="60" as="geometry"/>
                </mxCell>
                <mxCell id="LbGbRFIoBxtA0kbKudNe-76" value="" style="edgeStyle=orthogonalEdgeStyle;rounded=0;orthogonalLoop=1;jettySize=auto;html=1;" parent="1" source="LbGbRFIoBxtA0kbKudNe-73" target="LbGbRFIoBxtA0kbKudNe-75" edge="1">
                    <mxGeometry relative="1" as="geometry"/>
                </mxCell>
                <mxCell id="LbGbRFIoBxtA0kbKudNe-73" value="Email: &quot;Congratulations, you're accepted!&quot;" style="whiteSpace=wrap;html=1;rounded=1;" parent="1" vertex="1">
                    <mxGeometry x="170" y="1260" width="120" height="60" as="geometry"/>
                </mxCell>
                <mxCell id="LbGbRFIoBxtA0kbKudNe-78" value="" style="edgeStyle=orthogonalEdgeStyle;rounded=0;orthogonalLoop=1;jettySize=auto;html=1;" parent="1" source="LbGbRFIoBxtA0kbKudNe-75" target="LbGbRFIoBxtA0kbKudNe-77" edge="1">
                    <mxGeometry relative="1" as="geometry"/>
                </mxCell>
                <mxCell id="LbGbRFIoBxtA0kbKudNe-75" value="Welcome pack received with beanie and goodies" style="whiteSpace=wrap;html=1;rounded=1;" parent="1" vertex="1">
                    <mxGeometry x="170" y="1390" width="120" height="60" as="geometry"/>
                </mxCell>
                <mxCell id="LbGbRFIoBxtA0kbKudNe-80" value="" style="edgeStyle=orthogonalEdgeStyle;rounded=0;orthogonalLoop=1;jettySize=auto;html=1;" parent="1" source="LbGbRFIoBxtA0kbKudNe-77" target="LbGbRFIoBxtA0kbKudNe-79" edge="1">
                    <mxGeometry relative="1" as="geometry"/>
                </mxCell>
                <mxCell id="LbGbRFIoBxtA0kbKudNe-77" value="Selfie with beanie hat for promotional purposes" style="whiteSpace=wrap;html=1;rounded=1;" parent="1" vertex="1">
                    <mxGeometry x="170" y="1510" width="120" height="60" as="geometry"/>
                </mxCell>
                <mxCell id="LbGbRFIoBxtA0kbKudNe-79" value="READY TO GO!" style="whiteSpace=wrap;html=1;rounded=1;fontStyle=1" parent="1" vertex="1">
                    <mxGeometry x="170" y="1630" width="120" height="60" as="geometry"/>
                </mxCell>
                <mxCell id="LbGbRFIoBxtA0kbKudNe-81" value="" style="edgeStyle=orthogonalEdgeStyle;rounded=0;orthogonalLoop=1;jettySize=auto;html=1;" parent="1" source="LbGbRFIoBxtA0kbKudNe-29" target="LbGbRFIoBxtA0kbKudNe-34" edge="1">
                    <mxGeometry relative="1" as="geometry">
                        <mxPoint x="-110" y="770" as="sourcePoint"/>
                        <mxPoint x="230" y="675" as="targetPoint"/>
                    </mxGeometry>
                </mxCell>
                <mxCell id="LbGbRFIoBxtA0kbKudNe-34" value="Yes" style="whiteSpace=wrap;html=1;rounded=1;" parent="1" vertex="1">
                    <mxGeometry x="170" y="740" width="120" height="60" as="geometry"/>
                </mxCell>
                <mxCell id="LbGbRFIoBxtA0kbKudNe-88" value="" style="edgeStyle=orthogonalEdgeStyle;rounded=0;orthogonalLoop=1;jettySize=auto;html=1;" parent="1" source="LbGbRFIoBxtA0kbKudNe-85" target="LbGbRFIoBxtA0kbKudNe-87" edge="1">
                    <mxGeometry relative="1" as="geometry"/>
                </mxCell>
                <mxCell id="LbGbRFIoBxtA0kbKudNe-85" value="User decides not to submit" style="whiteSpace=wrap;html=1;rounded=1;" parent="1" vertex="1">
                    <mxGeometry x="-20" y="960" width="120" height="60" as="geometry"/>
                </mxCell>
                <mxCell id="LbGbRFIoBxtA0kbKudNe-90" value="" style="edgeStyle=orthogonalEdgeStyle;rounded=0;orthogonalLoop=1;jettySize=auto;html=1;" parent="1" source="LbGbRFIoBxtA0kbKudNe-87" target="LbGbRFIoBxtA0kbKudNe-89" edge="1">
                    <mxGeometry relative="1" as="geometry"/>
                </mxCell>
                <mxCell id="LbGbRFIoBxtA0kbKudNe-87" value="Are you sure? Plus reminders if they just haven't uploaded the info" style="whiteSpace=wrap;html=1;rounded=1;" parent="1" vertex="1">
                    <mxGeometry x="-25" y="1100" width="130" height="80" as="geometry"/>
                </mxCell>
                <mxCell id="LbGbRFIoBxtA0kbKudNe-91" style="edgeStyle=orthogonalEdgeStyle;rounded=0;orthogonalLoop=1;jettySize=auto;html=1;entryX=0.009;entryY=0.683;entryDx=0;entryDy=0;entryPerimeter=0;" parent="1" source="LbGbRFIoBxtA0kbKudNe-89" target="LbGbRFIoBxtA0kbKudNe-42" edge="1">
                    <mxGeometry relative="1" as="geometry"/>
                </mxCell>
                <mxCell id="LbGbRFIoBxtA0kbKudNe-93" value="" style="edgeStyle=orthogonalEdgeStyle;rounded=0;orthogonalLoop=1;jettySize=auto;html=1;" parent="1" source="LbGbRFIoBxtA0kbKudNe-89" target="LbGbRFIoBxtA0kbKudNe-92" edge="1">
                    <mxGeometry relative="1" as="geometry"/>
                </mxCell>
                <mxCell id="LbGbRFIoBxtA0kbKudNe-89" value="Has user reconsidered?" style="rhombus;whiteSpace=wrap;html=1;rounded=1;" parent="1" vertex="1">
                    <mxGeometry x="-10" y="1250" width="100" height="110" as="geometry"/>
                </mxCell>
                <mxCell id="LbGbRFIoBxtA0kbKudNe-95" value="" style="edgeStyle=orthogonalEdgeStyle;rounded=0;orthogonalLoop=1;jettySize=auto;html=1;" parent="1" source="LbGbRFIoBxtA0kbKudNe-92" target="LbGbRFIoBxtA0kbKudNe-94" edge="1">
                    <mxGeometry relative="1" as="geometry"/>
                </mxCell>
                <mxCell id="LbGbRFIoBxtA0kbKudNe-92" value="No" style="whiteSpace=wrap;html=1;rounded=1;" parent="1" vertex="1">
                    <mxGeometry x="-20" y="1410" width="120" height="60" as="geometry"/>
                </mxCell>
                <mxCell id="LbGbRFIoBxtA0kbKudNe-94" value="Application ends, ask for feedback" style="whiteSpace=wrap;html=1;rounded=1;" parent="1" vertex="1">
                    <mxGeometry x="-20" y="1550" width="120" height="60" as="geometry"/>
                </mxCell>
                <mxCell id="v6gJr6WEd6bAaIdDgsFx-5" style="edgeStyle=orthogonalEdgeStyle;rounded=0;orthogonalLoop=1;jettySize=auto;html=1;entryX=1;entryY=0.5;entryDx=0;entryDy=0;" parent="1" source="v6gJr6WEd6bAaIdDgsFx-3" target="LbGbRFIoBxtA0kbKudNe-13" edge="1">
                    <mxGeometry relative="1" as="geometry"/>
                </mxCell>
                <mxCell id="v6gJr6WEd6bAaIdDgsFx-6" style="edgeStyle=orthogonalEdgeStyle;rounded=0;orthogonalLoop=1;jettySize=auto;html=1;entryX=1;entryY=0.25;entryDx=0;entryDy=0;" parent="1" source="v6gJr6WEd6bAaIdDgsFx-3" target="LbGbRFIoBxtA0kbKudNe-19" edge="1">
                    <mxGeometry relative="1" as="geometry"/>
                </mxCell>
                <mxCell id="v6gJr6WEd6bAaIdDgsFx-3" value="On app: Burger menu&lt;br&gt;On site: navbar" style="whiteSpace=wrap;html=1;rounded=1;fillColor=#f8cecc;strokeColor=#b85450;" parent="1" vertex="1">
                    <mxGeometry x="-15" y="110" width="120" height="60" as="geometry"/>
                </mxCell>
                <mxCell id="v6gJr6WEd6bAaIdDgsFx-14" style="edgeStyle=orthogonalEdgeStyle;rounded=0;orthogonalLoop=1;jettySize=auto;html=1;entryX=1;entryY=0.5;entryDx=0;entryDy=0;" parent="1" source="v6gJr6WEd6bAaIdDgsFx-9" target="LbGbRFIoBxtA0kbKudNe-21" edge="1">
                    <mxGeometry relative="1" as="geometry"/>
                </mxCell>
                <mxCell id="v6gJr6WEd6bAaIdDgsFx-9" value="Course overview Page" style="whiteSpace=wrap;html=1;rounded=1;fillColor=#f8cecc;strokeColor=#b85450;" parent="1" vertex="1">
                    <mxGeometry x="-360" y="30" width="120" height="60" as="geometry"/>
                </mxCell>
                <mxCell id="v6gJr6WEd6bAaIdDgsFx-15" style="edgeStyle=orthogonalEdgeStyle;rounded=0;orthogonalLoop=1;jettySize=auto;html=1;entryX=1;entryY=0.5;entryDx=0;entryDy=0;" parent="1" source="v6gJr6WEd6bAaIdDgsFx-11" target="LbGbRFIoBxtA0kbKudNe-23" edge="1">
                    <mxGeometry relative="1" as="geometry"/>
                </mxCell>
                <mxCell id="v6gJr6WEd6bAaIdDgsFx-11" value="Testimonials page" style="whiteSpace=wrap;html=1;rounded=1;fillColor=#f8cecc;strokeColor=#b85450;" parent="1" vertex="1">
                    <mxGeometry x="-360" y="230" width="120" height="60" as="geometry"/>
                </mxCell>
                <mxCell id="v6gJr6WEd6bAaIdDgsFx-31" style="edgeStyle=orthogonalEdgeStyle;rounded=0;orthogonalLoop=1;jettySize=auto;html=1;entryX=0.5;entryY=0;entryDx=0;entryDy=0;" parent="1" source="v6gJr6WEd6bAaIdDgsFx-18" target="LbGbRFIoBxtA0kbKudNe-15" edge="1">
                    <mxGeometry relative="1" as="geometry"/>
                </mxCell>
                <mxCell id="v6gJr6WEd6bAaIdDgsFx-18" value="APPLY NOW button" style="whiteSpace=wrap;html=1;rounded=1;fillColor=#f8cecc;strokeColor=#b85450;" parent="1" vertex="1">
                    <mxGeometry x="330" y="210" width="120" height="60" as="geometry"/>
                </mxCell>
                <mxCell id="v6gJr6WEd6bAaIdDgsFx-23" value="Front page graphics - main image" style="whiteSpace=wrap;html=1;rounded=1;fillColor=#f8cecc;strokeColor=#b85450;" parent="1" vertex="1">
                    <mxGeometry x="414" y="10" width="120" height="60" as="geometry"/>
                </mxCell>
                <mxCell id="v6gJr6WEd6bAaIdDgsFx-27" value="Directives: Slogan, selling points" style="whiteSpace=wrap;html=1;rounded=1;fillColor=#f8cecc;strokeColor=#b85450;" parent="1" vertex="1">
                    <mxGeometry x="570" y="100" width="120" height="60" as="geometry"/>
                </mxCell>
                <mxCell id="v6gJr6WEd6bAaIdDgsFx-34" value="Colour scheme, flexbox allocation, responsiveness" style="whiteSpace=wrap;html=1;rounded=1;fillColor=#f8cecc;strokeColor=#b85450;" parent="1" vertex="1">
                    <mxGeometry x="270" y="10" width="120" height="60" as="geometry"/>
                </mxCell>
            </root>
        </mxGraphModel>
    </diagram>
</mxfile>